<mxfile host="app.diagrams.net" modified="2024-02-05T18:47:25.737Z" agent="Mozilla/5.0 (X11; Ubuntu; Linux x86_64; rv:122.0) Gecko/20100101 Firefox/122.0" version="23.1.1" etag="vxfJ2Od70GL-wLZiMlxU" type="github">
  <diagram name="PÃ¡gina-1" id="wRXZqWM6zkwUx6kvJeeP">
    <mxGraphModel>
      <root>
        <mxCell id="0" />
        <mxCell id="1" parent="0" />
      </root>
    </mxGraphModel>
  </diagram>
</mxfile>
